<svg width="20" height="19" viewBox="0 0 20 19" fill="none" xmlns="http://www.w3.org/2000/svg">
<path d="M18.3118 3.98521H5.58461L4.99522 1.66294C4.93729 1.43877 4.73831 1.28261 4.50659 1.28261H1.88961C1.61255 1.28261 1.38586 1.5093 1.38586 1.78636C1.38586 2.06342 1.61255 2.29011 1.88961 2.29011H4.11366L4.70053 4.59979L6.46113 12.8436C6.51151 13.0753 6.71552 13.2416 6.9548 13.2416H16.5487C16.7854 13.2416 16.992 13.0753 17.0423 12.8436L18.8055 4.58972C18.8382 4.44111 18.8005 4.28495 18.7048 4.16657C18.609 4.04818 18.4629 3.98521 18.3118 3.98521ZM16.1406 12.2366H7.36283L5.81381 4.99271H17.6871L16.1406 12.2366Z" fill="#F8F5F1" stroke="#F8F5F1" stroke-width="0.109565"/>
<path d="M8.28986 14.0956C7.28992 14.0956 6.47888 14.9091 6.47888 15.9065C6.47888 16.9039 7.29243 17.7175 8.28986 17.7175C9.28727 17.7175 10.1009 16.9065 10.1009 15.909C10.1009 14.9116 9.28727 14.0956 8.28986 14.0956ZM8.28986 16.7125C7.84656 16.7125 7.48638 16.3524 7.48638 15.909C7.48638 15.4657 7.84656 15.1055 8.28986 15.1055C8.73318 15.1055 9.09333 15.4657 9.09333 15.909C9.09333 16.3524 8.73318 16.7125 8.28986 16.7125Z" fill="#F8F5F1" stroke="#F8F5F1" stroke-width="0.109565"/>
<path d="M15.8454 14.0956C14.8454 14.0956 14.0344 14.9091 14.0344 15.9065C14.0344 16.9039 14.8479 17.7175 15.8454 17.7175C16.8428 17.7175 17.6564 16.9065 17.6564 15.909C17.6564 14.9116 16.8428 14.0956 15.8454 14.0956ZM15.8454 16.7125C15.4021 16.7125 15.042 16.3524 15.042 15.909C15.042 15.4657 15.4021 15.1055 15.8454 15.1055C16.2887 15.1055 16.6489 15.4657 16.6489 15.909C16.6489 16.3524 16.2887 16.7125 15.8454 16.7125Z" fill="#F8F5F1" stroke="#F8F5F1" stroke-width="0.109565"/>
</svg>
