<svg width="34" height="27" viewBox="0 0 34 27" fill="none" xmlns="http://www.w3.org/2000/svg">
<path d="M18.3118 11.9852H5.58461L4.99522 9.66294C4.93729 9.43877 4.73831 9.28261 4.50659 9.28261H1.88961C1.61255 9.28261 1.38586 9.5093 1.38586 9.78636C1.38586 10.0634 1.61255 10.2901 1.88961 10.2901H4.11366L4.70053 12.5998L6.46113 20.8436C6.51151 21.0753 6.71552 21.2416 6.9548 21.2416H16.5487C16.7854 21.2416 16.992 21.0753 17.0423 20.8436L18.8055 12.5897C18.8382 12.4411 18.8005 12.2849 18.7048 12.1666C18.609 12.0482 18.4629 11.9852 18.3118 11.9852ZM16.1406 20.2366H7.36283L5.81381 12.9927H17.6871L16.1406 20.2366Z" fill="#F8F5F1" stroke="#F8F5F1" stroke-width="0.109565"/>
<path d="M8.28986 22.0956C7.28992 22.0956 6.47888 22.9091 6.47888 23.9065C6.47888 24.9039 7.29243 25.7175 8.28986 25.7175C9.28727 25.7175 10.1009 24.9065 10.1009 23.909C10.1009 22.9116 9.28727 22.0956 8.28986 22.0956ZM8.28986 24.7125C7.84656 24.7125 7.48638 24.3524 7.48638 23.909C7.48638 23.4657 7.84656 23.1055 8.28986 23.1055C8.73318 23.1055 9.09333 23.4657 9.09333 23.909C9.09333 24.3524 8.73318 24.7125 8.28986 24.7125Z" fill="#F8F5F1" stroke="#F8F5F1" stroke-width="0.109565"/>
<path d="M15.8454 22.0956C14.8454 22.0956 14.0344 22.9091 14.0344 23.9065C14.0344 24.9039 14.8479 25.7175 15.8454 25.7175C16.8428 25.7175 17.6564 24.9065 17.6564 23.909C17.6564 22.9116 16.8428 22.0956 15.8454 22.0956ZM15.8454 24.7125C15.4021 24.7125 15.042 24.3524 15.042 23.909C15.042 23.4657 15.4021 23.1055 15.8454 23.1055C16.2887 23.1055 16.6489 23.4657 16.6489 23.909C16.6489 24.3524 16.2887 24.7125 15.8454 24.7125Z" fill="#F8F5F1" stroke="#F8F5F1" stroke-width="0.109565"/>
<rect x="12.9945" y="0.5" width="21" height="21" rx="10.5" fill="#F8F5F1"/>
<path d="M23.185 14.617C22.81 14.617 22.474 14.533 22.177 14.365C21.88 14.194 21.625 13.9585 21.412 13.6585C21.199 13.3585 21.037 13.012 20.926 12.619C20.815 12.223 20.7595 11.8 20.7595 11.35C20.7595 10.9 20.815 10.477 20.926 10.081C21.037 9.685 21.199 9.3385 21.412 9.0415C21.625 8.7415 21.88 8.5075 22.177 8.3395C22.474 8.1685 22.81 8.083 23.185 8.083C23.557 8.083 23.8915 8.1685 24.1885 8.3395C24.4885 8.5075 24.742 8.7415 24.949 9.0415C25.159 9.3385 25.3195 9.685 25.4305 10.081C25.5445 10.477 25.6015 10.9 25.6015 11.35C25.6015 11.8 25.5445 12.223 25.4305 12.619C25.3195 13.012 25.159 13.3585 24.949 13.6585C24.742 13.9585 24.4885 14.194 24.1885 14.365C23.8915 14.533 23.557 14.617 23.185 14.617ZM23.185 13.861C23.56 13.861 23.8735 13.7455 24.1255 13.5145C24.3805 13.2805 24.571 12.973 24.697 12.592C24.823 12.211 24.886 11.797 24.886 11.35C24.886 10.879 24.82 10.4545 24.688 10.0765C24.559 9.6955 24.367 9.394 24.112 9.172C23.86 8.95 23.551 8.839 23.185 8.839C22.897 8.839 22.645 8.9065 22.429 9.0415C22.216 9.1765 22.039 9.361 21.898 9.595C21.757 9.829 21.6505 10.0975 21.5785 10.4005C21.5095 10.7005 21.475 11.017 21.475 11.35C21.475 11.797 21.5395 12.2125 21.6685 12.5965C21.7975 12.9775 21.988 13.2835 22.24 13.5145C22.495 13.7455 22.81 13.861 23.185 13.861Z" fill="black"/>
</svg>
