<svg width="45" height="46" viewBox="0 0 45 46" fill="none" xmlns="http://www.w3.org/2000/svg">
<rect y="0.359863" width="45" height="45" rx="22.5" fill="#8F7979"/>
<path fill-rule="evenodd" clip-rule="evenodd" d="M22.5 14.8599C20.327 14.8599 20.055 14.8699 19.202 14.9079C18.35 14.9469 17.769 15.0819 17.26 15.2799C16.7262 15.4808 16.2426 15.7958 15.843 16.2029C15.398 16.6469 15.124 17.0929 14.92 17.6199C14.722 18.1289 14.587 18.7099 14.548 19.5619C14.51 20.4149 14.5 20.6869 14.5 22.8599C14.5 25.0329 14.51 25.3049 14.548 26.1579C14.587 27.0099 14.722 27.5909 14.92 28.0999C15.124 28.6259 15.398 29.0729 15.843 29.5169C16.287 29.9619 16.733 30.2359 17.26 30.4399C17.769 30.6379 18.35 30.7729 19.202 30.8119C20.055 30.8499 20.327 30.8599 22.5 30.8599C24.673 30.8599 24.945 30.8499 25.798 30.8119C26.65 30.7729 27.231 30.6379 27.74 30.4399C28.2738 30.2389 28.7574 29.9239 29.157 29.5169C29.602 29.0729 29.876 28.6269 30.08 28.0999C30.278 27.5909 30.413 27.0099 30.452 26.1579C30.49 25.3049 30.5 25.0329 30.5 22.8599C30.5 20.6869 30.49 20.4149 30.452 19.5619C30.413 18.7099 30.278 18.1289 30.08 17.6199C29.879 17.086 29.564 16.6025 29.157 16.2029C28.7574 15.7958 28.2738 15.4808 27.74 15.2799C27.231 15.0819 26.65 14.9469 25.798 14.9079C24.945 14.8699 24.673 14.8599 22.5 14.8599ZM22.5 16.3009C24.636 16.3009 24.89 16.3099 25.733 16.3479C26.513 16.3839 26.936 16.5139 27.218 16.6239C27.592 16.7689 27.858 16.9419 28.138 17.2219C28.418 17.5019 28.591 17.7679 28.736 18.1419C28.846 18.4239 28.976 18.8469 29.012 19.6269C29.05 20.4709 29.059 20.7239 29.059 22.8599C29.059 24.9959 29.05 25.2499 29.012 26.0929C28.976 26.8729 28.846 27.2959 28.736 27.5779C28.591 27.9519 28.418 28.2179 28.138 28.4979C27.858 28.7779 27.592 28.9509 27.218 29.0959C26.936 29.2059 26.513 29.3359 25.733 29.3719C24.889 29.4099 24.636 29.4189 22.5 29.4189C20.364 29.4189 20.11 29.4099 19.267 29.3719C18.487 29.3359 18.064 29.2059 17.782 29.0959C17.4345 28.9678 17.1201 28.7634 16.862 28.4979C16.5964 28.2397 16.3921 27.9254 16.264 27.5779C16.154 27.2959 16.024 26.8729 15.988 26.0929C15.95 25.2489 15.941 24.9959 15.941 22.8599C15.941 20.7239 15.95 20.4699 15.988 19.6269C16.024 18.8469 16.154 18.4239 16.264 18.1419C16.409 17.7679 16.582 17.5019 16.862 17.2219C17.142 16.9419 17.408 16.7689 17.782 16.6239C18.064 16.5139 18.487 16.3839 19.267 16.3479C20.111 16.3099 20.364 16.3009 22.5 16.3009ZM22.5 25.5269C22.1498 25.5269 21.803 25.4579 21.4794 25.3238C21.1558 25.1898 20.8618 24.9934 20.6141 24.7457C20.3665 24.4981 20.17 24.2041 20.036 23.8805C19.902 23.5569 19.833 23.2101 19.833 22.8599C19.833 22.5096 19.902 22.1628 20.036 21.8392C20.17 21.5157 20.3665 21.2217 20.6141 20.974C20.8618 20.7264 21.1558 20.5299 21.4794 20.3959C21.803 20.2618 22.1498 20.1929 22.5 20.1929C23.2073 20.1929 23.8857 20.4739 24.3859 20.974C24.886 21.4742 25.167 22.1525 25.167 22.8599C25.167 23.5672 24.886 24.2456 24.3859 24.7457C23.8857 25.2459 23.2073 25.5269 22.5 25.5269ZM22.5 18.7519C21.4105 18.7519 20.3656 19.1847 19.5952 19.9551C18.8248 20.7255 18.392 21.7704 18.392 22.8599C18.392 23.9494 18.8248 24.9943 19.5952 25.7647C20.3656 26.5351 21.4105 26.9679 22.5 26.9679C23.5895 26.9679 24.6344 26.5351 25.4048 25.7647C26.1752 24.9943 26.608 23.9494 26.608 22.8599C26.608 21.7704 26.1752 20.7255 25.4048 19.9551C24.6344 19.1847 23.5895 18.7519 22.5 18.7519ZM27.73 18.5899C27.73 18.8445 27.6289 19.0887 27.4488 19.2687C27.2688 19.4487 27.0246 19.5499 26.77 19.5499C26.5154 19.5499 26.2712 19.4487 26.0912 19.2687C25.9111 19.0887 25.81 18.8445 25.81 18.5899C25.81 18.3353 25.9111 18.0911 26.0912 17.911C26.2712 17.731 26.5154 17.6299 26.77 17.6299C27.0246 17.6299 27.2688 17.731 27.4488 17.911C27.6289 18.0911 27.73 18.3353 27.73 18.5899Z" fill="white"/>
</svg>
