<svg width="45" height="45" viewBox="0 0 45 45" fill="none" xmlns="http://www.w3.org/2000/svg">
<rect width="45" height="45" rx="22.5" fill="#8F7979"/>
<path fill-rule="evenodd" clip-rule="evenodd" d="M15.2067 13.6401C14.5402 13.6401 14 14.1804 14 14.8468V29.4335C14 30.0999 14.5402 30.6401 15.2067 30.6401H29.7933C30.4598 30.6401 31 30.0999 31 29.4335V14.8468C31 14.1804 30.4598 13.6401 29.7933 13.6401H15.2067ZM17.8157 18.9195C18.6302 18.9195 19.2905 18.2592 19.2905 17.4448C19.2905 16.6303 18.6302 15.97 17.8157 15.97C17.0012 15.97 16.341 16.6303 16.341 17.4448C16.341 18.2592 17.0012 18.9195 17.8157 18.9195ZM20.6411 20.0094H23.0852V21.1291C23.0852 21.1291 23.7485 19.8026 25.5531 19.8026C27.1628 19.8026 28.4964 20.5956 28.4964 23.0128V28.1099H25.9636V23.6304C25.9636 22.2045 25.2023 22.0477 24.6222 22.0477C23.4183 22.0477 23.2122 23.0861 23.2122 23.8164V28.1099H20.6411V20.0094ZM19.1013 20.0094H16.5301V28.1099H19.1013V20.0094Z" fill="white"/>
</svg>
