<svg width="287" height="181" viewBox="0 0 287 181" fill="none" xmlns="http://www.w3.org/2000/svg">
<g clip-path="url(#clip0_1_762)">
<path d="M74.5 70.9302C74.5 32.8225 105.392 1.93018 143.5 1.93018C181.608 1.93018 212.5 32.8225 212.5 70.9302V179.93H74.5V70.9302Z" fill="#310C07" stroke="#E1B058" stroke-width="2"/>
<path fill-rule="evenodd" clip-rule="evenodd" d="M122 66.4539C122 64.5464 123.231 63 124.75 63H163.25C164.769 63 166 64.5464 166 66.4539C166 68.3615 164.769 69.9078 163.25 69.9078V75.3351C163.25 80.0614 161.708 84.5812 158.983 87.8407L147.89 101.109L159.446 116.315C161.888 119.527 163.25 123.798 163.25 128.239V132.078C164.769 132.078 166 133.625 166 135.532C166 137.44 164.769 138.986 163.25 138.986H147.078C146.45 139.007 145.784 139 145.091 138.993C144.734 138.99 144.37 138.986 144 138.986C143.63 138.986 143.266 138.99 142.909 138.993C142.216 139 141.55 139.007 140.922 138.986L124.75 138.986C123.231 138.986 122 137.44 122 135.532C122 133.625 123.231 132.078 124.75 132.078V128.239C124.75 123.798 126.112 119.527 128.554 116.315L140.11 101.109L129.017 87.8407C126.292 84.5812 124.75 80.0614 124.75 75.3351V69.9078C123.231 69.9078 122 68.3615 122 66.4539ZM152.041 132.078C150.759 126.308 144 118.263 144 118.263C144 118.263 137.241 126.308 135.959 132.078H130.25V128.239C130.25 125.574 131.067 123.012 132.532 121.084L144 105.995L155.468 121.084C156.933 123.012 157.75 125.574 157.75 128.239V132.078H152.041ZM130.25 69.9078H157.75L157.75 75.3351C157.75 78.1709 156.825 80.8827 155.19 82.8385L144.092 96.1126L144 95.991L143.908 96.1126L132.81 82.8385C131.175 80.8828 130.25 78.1709 130.25 75.3351V69.9078Z" fill="white"/>
</g>
<defs>
<clipPath id="clip0_1_762">
<rect width="286" height="180" fill="white" transform="translate(0.5 0.930176)"/>
</clipPath>
</defs>
</svg>
