<svg width="141" height="181" viewBox="0 0 141 181" fill="none" xmlns="http://www.w3.org/2000/svg">
<path d="M1.5 70.9302C1.5 32.8225 32.3924 1.93018 70.5 1.93018C108.608 1.93018 139.5 32.8225 139.5 70.9302V179.93H1.5V70.9302Z" fill="#310C07" stroke="#E1B058" stroke-width="2"/>
<path fill-rule="evenodd" clip-rule="evenodd" d="M49 66.4539C49 64.5464 50.2312 63 51.75 63H90.25C91.7688 63 93 64.5464 93 66.4539C93 68.3615 91.7688 69.9078 90.25 69.9078V75.3351C90.25 80.0614 88.7077 84.5812 85.9828 87.8407L74.89 101.109L86.4461 116.315C88.8877 119.527 90.25 123.798 90.25 128.239V132.078C91.7688 132.078 93 133.625 93 135.532C93 137.44 91.7688 138.986 90.25 138.986H74.078C73.4502 139.007 72.7841 139 72.091 138.993C71.734 138.99 71.3699 138.986 71 138.986C70.6301 138.986 70.266 138.99 69.909 138.993C69.2159 139 68.5498 139.007 67.922 138.986L51.75 138.986C50.2312 138.986 49 137.44 49 135.532C49 133.625 50.2312 132.078 51.75 132.078V128.239C51.75 123.798 53.1123 119.527 55.5539 116.315L67.11 101.109L56.0172 87.8407C53.2923 84.5812 51.75 80.0614 51.75 75.3351V69.9078C50.2312 69.9078 49 68.3615 49 66.4539ZM79.0414 132.078C77.7593 126.308 71 118.263 71 118.263C71 118.263 64.2407 126.308 62.9586 132.078H57.25V128.239C57.25 125.574 58.0674 123.012 59.5323 121.084L71 105.995L82.4677 121.084C83.9326 123.012 84.75 125.574 84.75 128.239V132.078H79.0414ZM57.25 69.9078H84.75L84.75 75.3351C84.75 78.1709 83.8246 80.8827 82.1897 82.8385L71.0924 96.1126L71 95.991L70.9076 96.1126L59.8103 82.8385C58.1754 80.8828 57.25 78.1709 57.25 75.3351V69.9078Z" fill="white"/>
</svg>
