<svg width="23" height="23" viewBox="0 0 23 23" fill="none" xmlns="http://www.w3.org/2000/svg">
<path d="M19.5129 11.0187L11.7135 19.633C11.5241 19.8421 11.1779 19.6849 11.2107 19.4047L11.9899 12.7549H9.10854C8.85665 12.7549 8.72461 12.4557 8.89447 12.2697L17.2984 3.06445C17.5076 2.83526 17.882 3.05077 17.7889 3.34682L15.5284 10.5343H19.2981C19.5493 10.5343 19.6816 10.8324 19.5129 11.0187Z" fill="#FEA203"/>
<path fill-rule="evenodd" clip-rule="evenodd" d="M14.142 4.56438C14.0335 4.42392 13.9156 4.28977 13.7888 4.16291C13.0025 3.37663 11.9361 2.93489 10.8241 2.93489C9.71205 2.93489 8.64562 3.37663 7.85936 4.16291C7.07308 4.9492 6.63135 6.01563 6.63135 7.1276C6.63135 8.23958 7.07308 9.30597 7.85936 10.0923C8.07324 10.3062 8.30785 10.4946 8.55848 10.6555L9.38494 9.75396C9.13791 9.6186 8.9091 9.44797 8.70644 9.24523C8.14478 8.6836 7.82927 7.92187 7.82927 7.1276C7.82927 6.33334 8.14478 5.57159 8.70644 5.00997C9.26807 4.44833 10.0298 4.13281 10.8241 4.13281C11.6183 4.13281 12.3801 4.44833 12.9417 5.00997C13.0821 5.15033 13.207 5.30319 13.3156 5.46594L14.142 4.56438ZM17.5779 15.8868L16.7544 16.7927C17.1744 17.3882 17.4126 18.0817 17.4126 18.8073V20.3047C17.4126 20.6355 17.6808 20.9037 18.0116 20.9037C18.3423 20.9037 18.6105 20.6355 18.6105 20.3047V18.8073C18.6105 17.7068 18.2255 16.7051 17.5779 15.8868ZM10.4818 14.914H8.77084C6.18848 14.914 4.23551 16.7299 4.23551 18.8073V20.3047C4.23551 20.6355 3.96735 20.9037 3.63655 20.9037C3.30576 20.9037 3.0376 20.6355 3.0376 20.3047V18.8073C3.0376 15.923 5.68223 13.7162 8.77084 13.7162H10.6329L10.4818 14.914Z" fill="#F8F5F1" stroke="#F8F5F1" stroke-width="0.17037"/>
</svg>
