<svg width="13" height="14" viewBox="0 0 13 14" fill="none" xmlns="http://www.w3.org/2000/svg">
<path d="M13 10.0923V12.5472C13 12.9809 12.7109 13.27 12.2772 13.27C5.48805 13.27 0 7.78062 0 0.992843C0 0.559149 0.289129 0.27002 0.722823 0.27002H3.25068C3.68437 0.27002 3.9735 0.559149 3.9735 0.992843C3.9735 1.85888 4.11806 2.72627 4.40719 3.5923C4.4788 3.80847 4.40719 4.0976 4.26263 4.31512L2.59946 5.90398C3.61006 7.92654 5.34348 9.587 7.36604 10.6705L8.95489 9.0817C9.17107 8.86553 9.46019 8.79257 9.67772 8.93714C10.4721 9.22627 11.3382 9.37083 12.2772 9.37083C12.7109 9.36948 13 9.65861 13 10.0923Z" fill="#FFFEFB"/>
</svg>
