<svg width="24" height="24" viewBox="0 0 24 24" fill="none" xmlns="http://www.w3.org/2000/svg">
<path fill-rule="evenodd" clip-rule="evenodd" d="M5.29536 9.24803C4.90348 8.85887 4.90127 8.22571 5.29043 7.83382L10.7904 2.29536C10.9782 2.10632 11.2336 2 11.5 2C11.7664 2 12.0218 2.10632 12.2096 2.29536L17.7096 7.83382C18.0987 8.22571 18.0965 8.85887 17.7046 9.24803C17.3128 9.63719 16.6796 9.63498 16.2904 9.2431L12.5 5.42616V21C12.5 21.5523 12.0523 22 11.5 22C10.9477 22 10.5 21.5523 10.5 21V5.42616L6.70957 9.2431C6.3204 9.63498 5.68724 9.63719 5.29536 9.24803Z" fill="white"/>
</svg>
