<svg width="24" height="24" viewBox="0 0 24 24" fill="none" xmlns="http://www.w3.org/2000/svg">
<path fill-rule="evenodd" clip-rule="evenodd" d="M14.752 5.29536C15.1411 4.90348 15.7743 4.90127 16.1662 5.29043L21.7046 10.7904C21.8937 10.9782 22 11.2336 22 11.5C22 11.7664 21.8937 12.0218 21.7046 12.2096L16.1662 17.7096C15.7743 18.0987 15.1411 18.0965 14.752 17.7046C14.3628 17.3128 14.365 16.6796 14.7569 16.2904L18.5738 12.5H3C2.44772 12.5 2 12.0523 2 11.5C2 10.9477 2.44772 10.5 3 10.5H18.5738L14.7569 6.70957C14.365 6.32041 14.3628 5.68724 14.752 5.29536Z" fill="white"/>
</svg>
