<svg width="45" height="46" viewBox="0 0 45 46" fill="none" xmlns="http://www.w3.org/2000/svg">
<rect y="0.359863" width="45" height="45" rx="22.5" fill="#8F7979"/>
<path fill-rule="evenodd" clip-rule="evenodd" d="M29.5325 16.7293C30.307 16.9326 30.9168 17.5316 31.1238 18.2923C31.5 19.6709 31.5 22.5474 31.5 22.5474C31.5 22.5474 31.5 25.4238 31.1238 26.8026C30.9168 27.5632 30.307 28.1622 29.5325 28.3655C28.1288 28.7349 22.5 28.7349 22.5 28.7349C22.5 28.7349 16.8712 28.7349 15.4675 28.3655C14.6931 28.1622 14.0832 27.5632 13.8762 26.8026C13.5 25.4238 13.5 22.5474 13.5 22.5474C13.5 22.5474 13.5 19.6709 13.8762 18.2923C14.0832 17.5316 14.6931 16.9326 15.4675 16.7293C16.8712 16.3599 22.5 16.3599 22.5 16.3599C22.5 16.3599 28.1288 16.3599 29.5325 16.7293ZM25.3636 22.5475L20.6591 25.159V19.9357L25.3636 22.5475Z" fill="white"/>
</svg>
